<?xml version="1.0" standalone="no"?>
<!DOCTYPE svg PUBLIC "-//W3C//DTD SVG 20010904//EN"
 "http://www.w3.org/TR/2001/REC-SVG-20010904/DTD/svg10.dtd">
<svg version="1.0" xmlns="http://www.w3.org/2000/svg"
 width="320.000000pt" height="320.000000pt" viewBox="0 0 320.000000 320.000000"
 preserveAspectRatio="xMidYMid meet">
<metadata>
Created by potrace 1.11, written by Peter Selinger 2001-2013
</metadata>
<g transform="translate(0.000000,320.000000) scale(0.100000,-0.100000)"
fill="#000000" stroke="none">
<path d="M1420 3189 c-344 -36 -698 -207 -950 -459 -429 -429 -578 -1065 -383
-1640 81 -241 211 -450 391 -627 263 -262 612 -422 989 -454 462 -40 927 128
1255 454 435 431 587 1069 391 1647 -81 240 -210 448 -386 622 -346 343 -817
507 -1307 457z m882 -929 c73 -21 116 -110 85 -176 -18 -36 -814 -1102 -838
-1120 -26 -20 -80 -33 -112 -27 -48 9 -486 445 -496 493 -23 107 76 198 172
159 17 -7 102 -82 187 -165 85 -84 155 -152 156 -151 0 1 166 221 368 489 369
491 374 497 436 507 3 1 22 -4 42 -9z"/>
</g>
</svg>
